HIERARCHY
ROOT Pelvis
{
	OFFSET 0.000000 0.000000 0.000000
	CHANNELS 6 Xposition Yposition Zposition Xrotation Yrotation Zrotation
	JOINT LeftUpLeg_virtual
	{
		OFFSET 0.000000 0.000000 0.000000
		CHANNELS 3 Xrotation Yrotation Zrotation
		JOINT LeftUpLeg
		{
			OFFSET 18.735201 -5.666702 -4.541200
			CHANNELS 3 Xrotation Yrotation Zrotation
			JOINT LeftLeg
			{
				OFFSET -0.021200 -31.938179 0.493100
				CHANNELS 3 Xrotation Yrotation Zrotation
				JOINT LeftFoot
				{
					OFFSET 0.021200 -31.938179 -4.336299
					CHANNELS 3 Xrotation Yrotation Zrotation
					JOINT LeftToeBase
					{
						OFFSET 0.943001 -26.722000 15.023500
						CHANNELS 3 Xrotation Yrotation Zrotation
						End Site
						{
							OFFSET 0 0 0
						}
					}
				}
			}
		}
	}
	JOINT RightUpLeg_virtual
	{
		OFFSET 0.000000 0.000000 0.000000
		CHANNELS 3 Xrotation Yrotation Zrotation
		JOINT RightUpLeg
		{
			OFFSET -18.735201 -5.666702 -4.541200
			CHANNELS 3 Xrotation Yrotation Zrotation
			JOINT RightLeg
			{
				OFFSET 0.018946 -31.938133 0.493100
				CHANNELS 3 Xrotation Yrotation Zrotation
				JOINT RightFoot
				{
					OFFSET -0.018946 -31.938126 -4.336299
					CHANNELS 3 Xrotation Yrotation Zrotation
					JOINT RightToeBase
					{
						OFFSET -0.943001 -26.722004 15.023500
						CHANNELS 3 Xrotation Yrotation Zrotation
						End Site
						{
							OFFSET 0 0 0
						}
					}
				}
			}
		}
	}
	JOINT Hips_virtual
	{
		OFFSET 0.000000 0.000000 0.000000
		CHANNELS 3 Xrotation Yrotation Zrotation
		JOINT Hips
		{
			OFFSET -0.000000 -0.000000 -0.000000
			CHANNELS 3 Xrotation Yrotation Zrotation
			JOINT Spine
			{
				OFFSET 0.000000 10.199997 -0.299500
				CHANNELS 3 Xrotation Yrotation Zrotation
				JOINT Spine1
				{
					OFFSET 0.000000 11.900002 -1.516600
					CHANNELS 3 Xrotation Yrotation Zrotation
					JOINT Spine2
					{
						OFFSET 0.000000 13.600006 -2.842500
						CHANNELS 3 Xrotation Yrotation Zrotation
						JOINT Neck_virtual
						{
							OFFSET 0.000000 0.000000 0.000000
							CHANNELS 3 Xrotation Yrotation Zrotation
							JOINT Neck
							{
								OFFSET 0.000000 9.624100 -2.890100
								CHANNELS 3 Xrotation Yrotation Zrotation
								JOINT Head
								{
									OFFSET 0.000000 14.068802 -1.351900
									CHANNELS 3 Xrotation Yrotation Zrotation
									End Site
									{
										OFFSET 0 0 0
									}
								}
							}
						}
						JOINT LeftShoulder_virtual
						{
							OFFSET 0.000000 0.000000 0.000000
							CHANNELS 3 Xrotation Yrotation Zrotation
							JOINT LeftShoulder
							{
								OFFSET 15.263000 10.923401 -0.547700
								CHANNELS 3 Xrotation Yrotation Zrotation
								JOINT LeftArm
								{
									OFFSET 25.438599 -2.830597 -13.032500
									CHANNELS 3 Xrotation Yrotation Zrotation
									JOINT LeftForeArm
									{
										OFFSET 29.960503 0.000000 0.000000
										CHANNELS 3 Xrotation Yrotation Zrotation
										JOINT LeftHand
										{
											OFFSET 27.849251 0.000000 0.000000
											CHANNELS 3 Xrotation Yrotation Zrotation
											End Site
											{
												OFFSET 0 0 0
											}
										}
									}
								}
							}
						}
						JOINT RightShoulder_virtual
						{
							OFFSET 0.000000 0.000000 0.000000
							CHANNELS 3 Xrotation Yrotation Zrotation
							JOINT RightShoulder
							{
								OFFSET -15.263000 10.923401 -0.547700
								CHANNELS 3 Xrotation Yrotation Zrotation
								JOINT RightArm
								{
									OFFSET -25.438599 -2.830597 -13.032500
									CHANNELS 3 Xrotation Yrotation Zrotation
									JOINT RightForeArm
									{
										OFFSET -29.960503 0.000000 0.000000
										CHANNELS 3 Xrotation Yrotation Zrotation
										JOINT RightHand
										{
											OFFSET -27.849251 0.000000 0.000000
											CHANNELS 3 Xrotation Yrotation Zrotation
											End Site
											{
												OFFSET 0 0 0
											}
										}
									}
								}
							}
						}
					}
				}
			}
		}
	}
}
MOTION
Frames: 10
Frame Time: 0.03333333
-1.793676 90.977043 3.449715 0.000000 0.000000 0.000000 1.528194 -26.724609 0.667125 -30.708527 24.404587 16.858235 32.583715 8.028596 11.578720 -5.207638 1.791691 -15.706800 0.000000 0.000000 0.000000 1.528194 -26.724609 0.667125 -19.661087 -15.853544 -11.243016 34.896451 -1.375891 -7.532602 -16.755791 -2.986010 13.434105 0.000000 0.000000 0.000000 1.528194 -26.724609 0.667125 0.000000 0.000000 0.000000 4.031108 -1.453867 0.764199 1.504780 -0.576876 0.097092 0.000000 0.000000 0.000000 1.507365 -0.569384 0.100618 -1.018382 1.699750 1.112823 0.000000 0.000000 0.000000 1.507365 -0.569384 0.100618 -0.279651 3.035680 5.768247 -51.680910 -1.342404 -53.222886 -0.000590 -85.775893 -0.000519 0.000000 0.000000 0.000000 1.507365 -0.569384 0.100618 -1.120087 -11.901482 10.263996 -58.262190 66.059500 74.030044 -0.000341 83.625544 0.000308 0.000000 0.000000 0.000000 
-1.799382 90.969543 3.462341 0.000000 0.000000 0.000000 1.561949 -26.714255 0.695283 -30.756564 24.472040 16.875555 32.600421 7.952186 11.576414 -5.225496 1.792987 -15.687862 0.000000 0.000000 0.000000 1.561949 -26.714255 0.695283 -19.733294 -16.025181 -11.258142 34.924543 -1.239676 -7.661241 -16.783211 -2.992999 13.453580 0.000000 0.000000 0.000000 1.561949 -26.714255 0.695283 0.000000 0.000000 0.000000 4.006686 -1.468102 0.772269 1.495336 -0.584015 0.101201 0.000000 0.000000 0.000000 1.497948 -0.576593 0.104754 -1.014930 1.701781 1.107684 0.000000 0.000000 0.000000 1.497948 -0.576593 0.104754 -0.281260 3.073349 5.677562 -51.670876 -1.468547 -53.178770 0.001397 -85.685338 0.001327 0.000000 0.000000 0.000000 1.497948 -0.576593 0.104754 -1.122339 -11.917096 10.268323 -58.331967 66.132726 74.039879 0.000322 83.601037 -0.000391 0.000000 0.000000 0.000000 
-1.804943 90.961243 3.474552 0.000000 0.000000 0.000000 1.593066 -26.704532 0.715518 -30.832423 24.578794 16.924615 32.638657 7.827165 11.575031 -5.255131 1.796407 -15.656831 0.000000 0.000000 0.000000 1.593066 -26.704532 0.715518 -19.799561 -16.208222 -11.264888 34.947769 -1.110532 -7.793063 -16.807629 -3.000087 13.474134 0.000000 0.000000 0.000000 1.593066 -26.704532 0.715518 0.000000 0.000000 0.000000 3.984256 -1.486292 0.781918 1.486643 -0.592423 0.106145 0.000000 0.000000 0.000000 1.489284 -0.585014 0.109742 -1.006879 1.704122 1.103834 0.000000 0.000000 0.000000 1.489284 -0.585014 0.109742 -0.280620 3.096290 5.589871 -51.690588 -1.583849 -53.118856 -0.000475 -85.585453 -0.000491 0.000000 0.000000 0.000000 1.489284 -0.585014 0.109742 -1.123879 -11.917860 10.255497 -58.375817 66.174684 74.048062 0.000019 83.587787 -0.000054 0.000000 0.000000 0.000000 
-1.810822 90.954544 3.483738 0.000000 0.000000 0.000000 1.612123 -26.715235 0.731186 -30.908467 24.734591 16.998020 32.678914 7.670273 11.574054 -5.290765 1.801848 -15.618783 0.000000 0.000000 0.000000 1.612123 -26.715235 0.731186 -19.862470 -16.373939 -11.270247 34.974687 -0.982744 -7.916824 -16.826490 -3.006097 13.488298 0.000000 0.000000 0.000000 1.612123 -26.715235 0.731186 0.000000 -0.000001 0.000000 3.962776 -1.509834 0.795670 1.478282 -0.603038 0.112584 0.000000 0.000000 0.000000 1.480963 -0.595712 0.116257 -0.993133 1.707946 1.099494 0.000000 0.000000 0.000000 1.480963 -0.595712 0.116257 -0.278180 3.105554 5.508491 -51.749581 -1.681450 -53.045995 0.000076 -85.462271 0.000076 0.000000 0.000000 0.000000 1.480963 -0.595712 0.116257 -1.124840 -11.896560 10.214326 -58.411860 66.194737 74.072841 -0.000126 83.568334 0.000130 0.000000 0.000000 0.000000 
-1.816827 90.949791 3.491112 0.000000 0.000000 0.000000 1.619206 -26.746773 0.748158 -30.955524 24.899009 17.065952 32.703782 7.530077 11.571841 -5.323947 1.807432 -15.586488 0.000000 0.000000 0.000000 1.619206 -26.746773 0.748158 -19.928300 -16.525460 -11.283132 35.011167 -0.843751 -8.036683 -16.843246 -3.010580 13.496275 0.000000 0.000000 0.000000 1.619206 -26.746773 0.748158 0.000000 0.000001 0.000000 3.940439 -1.539929 0.815742 1.469574 -0.616833 0.121217 0.000000 0.000000 0.000000 1.472288 -0.609534 0.124994 -0.974049 1.714511 1.092792 0.000000 0.000000 0.000000 1.472288 -0.609534 0.124994 -0.274758 3.106065 5.433143 -51.851764 -1.757038 -52.965296 0.000210 -85.308311 0.000155 0.000000 0.000000 0.000000 1.472288 -0.609534 0.124994 -1.125856 -11.846164 10.129924 -58.466037 66.199150 74.137879 -0.000202 83.527128 0.000204 0.000000 0.000000 0.000000 
-1.823667 90.945343 3.499538 0.000000 0.000000 0.000000 1.624118 -26.784684 0.767995 -30.962405 24.998653 17.098477 32.712252 7.468880 11.566945 -5.349232 1.811324 -15.577312 0.000000 0.000000 0.000000 1.624118 -26.784684 0.767995 -20.002197 -16.698506 -11.300648 35.052828 -0.679414 -8.174253 -16.861958 -3.014803 13.504457 0.000000 0.000000 0.000000 1.624118 -26.784684 0.767995 0.000000 0.000001 0.000000 3.915604 -1.577301 0.843435 1.459904 -0.634222 0.132590 0.000000 0.000000 0.000000 1.462660 -0.626995 0.136512 -0.951246 1.724397 1.082101 0.000000 0.000000 0.000000 1.462660 -0.626995 0.136512 -0.271397 3.105501 5.361073 -51.989935 -1.809213 -52.881811 -0.000153 -85.125522 -0.000134 0.000000 0.000000 0.000000 1.462660 -0.626995 0.136512 -1.127666 -11.762732 9.989889 -58.566502 66.187839 74.269920 -0.000238 83.453956 0.000270 0.000000 0.000000 0.000000 
-1.832681 90.941803 3.509560 0.000000 0.000000 0.000000 1.626993 -26.821642 0.793000 -30.909574 24.997900 17.071404 32.690730 7.520300 11.561219 -5.356728 1.815184 -15.601501 0.000000 0.000000 0.000000 1.626993 -26.821642 0.793000 -20.077298 -16.880001 -11.324356 35.098693 -0.509439 -8.319234 -16.885450 -3.019090 13.514107 0.000000 0.000000 0.000000 1.626993 -26.821642 0.793000 0.000000 0.000000 0.000000 3.887555 -1.621136 0.879920 1.449006 -0.654882 0.146944 0.000000 0.000000 0.000000 1.451813 -0.647746 0.151045 -0.927186 1.737484 1.066625 0.000000 0.000000 0.000000 1.451813 -0.647746 0.151045 -0.269111 3.111916 5.288791 -52.143857 -1.840533 -52.797919 -0.000531 -84.924182 -0.000547 0.000000 0.000000 0.000000 1.451813 -0.647746 0.151045 -1.130644 -11.648111 9.791818 -58.734122 66.157854 74.489702 -0.000147 83.344243 0.000151 0.000000 0.000000 0.000000 
-1.843735 90.941635 3.519321 0.000000 0.000000 0.000000 1.628112 -26.861797 0.825477 -30.799860 24.928047 16.992718 32.627271 7.657650 11.555441 -5.341491 1.818401 -15.650465 0.000000 0.000000 0.000000 1.628112 -26.861797 0.825477 -20.138835 -16.987362 -11.356413 35.145841 -0.393786 -8.413486 -16.909363 -3.022998 13.517586 0.000000 0.000000 0.000000 1.628112 -26.861797 0.825477 0.000000 -0.000001 0.000000 3.856810 -1.668966 0.924988 1.437087 -0.677572 0.163863 0.000000 0.000000 0.000000 1.439944 -0.670498 0.168152 -0.904135 1.752548 1.046474 0.000000 0.000000 0.000000 1.439944 -0.670498 0.168152 -0.268623 3.131123 5.213856 -52.283920 -1.858716 -52.712859 0.000729 -84.719399 0.000738 0.000000 0.000000 0.000000 1.439944 -0.670498 0.168152 -1.134484 -11.511558 9.548558 -58.972311 66.109046 74.799191 -0.000179 83.199689 0.000184 0.000000 0.000000 0.000000 
-1.855375 90.946007 3.528160 0.000000 0.000000 0.000000 1.627755 -26.906861 0.860134 -30.662860 24.843135 16.895573 32.533427 7.820876 11.551086 -5.311548 1.819567 -15.706751 0.000000 0.000000 0.000000 1.627755 -26.906861 0.860134 -20.167906 -16.957094 -11.392552 35.183151 -0.378350 -8.406588 -16.926320 -3.025930 13.507546 0.000000 0.000000 0.000000 1.627755 -26.906861 0.860134 0.000000 0.000000 0.000000 3.825070 -1.716528 0.975324 1.424786 -0.700112 0.181941 0.000000 0.000000 0.000000 1.427705 -0.693047 0.186412 -0.883668 1.767772 1.022914 0.000000 0.000000 0.000000 1.427705 -0.693047 0.186412 -0.270140 3.164648 5.136338 -52.379624 -1.876450 -52.624705 0.000273 -84.526542 0.000289 0.000000 0.000000 0.000000 1.427705 -0.693047 0.186412 -1.138392 -11.368887 9.288191 -59.258974 66.048237 75.170992 -0.000199 83.028073 0.000190 0.000000 0.000000 0.000000 
-1.866608 90.953537 3.537758 0.000000 0.000000 0.000000 1.626056 -26.948440 0.888451 -30.529081 24.766003 16.806466 32.434485 7.969526 11.548136 -5.279259 1.819059 -15.758881 0.000000 0.000000 0.000000 1.626056 -26.948440 0.888451 -20.158562 -16.815687 -11.428753 35.202163 -0.448012 -8.304734 -16.935618 -3.026870 13.483747 0.000000 0.000000 0.000000 1.626056 -26.948440 0.888451 0.000000 0.000000 0.000000 3.794746 -1.758283 1.024384 1.413038 -0.719622 0.198805 0.000000 0.000000 0.000000 1.416021 -0.712577 0.203423 -0.866382 1.780814 0.998131 0.000000 0.000000 0.000000 1.416021 -0.712577 0.203423 -0.273295 3.209135 5.059499 -52.408503 -1.909453 -52.533232 -0.000359 -84.359304 -0.000367 0.000000 0.000000 0.000000 1.416021 -0.712577 0.203423 -1.141599 -11.239470 9.047904 -59.548355 65.988753 75.549426 0.000107 82.843904 -0.000167 0.000000 0.000000 0.000000 
